<svg xmlns="http://www.w3.org/2000/svg" xmlns:xlink="http://www.w3.org/1999/xlink" width="2000px" height="2000px" viewBox="0 0 2000 2000">
  <g id="9w1aMVhY0VGW4W-_ACFM7">
<g style="">
		<g id="Layer_1-2">
<path style="stroke: rgb(193,193,193); stroke-width: 0; stroke-dasharray: none; stroke-linecap: butt; stroke-dashoffset: 0; stroke-linejoin: miter; stroke-miterlimit: 4; fill: rgb(255,255,255); fill-rule: nonzero; opacity: 1;" transform="matrix(-7.150126 0 0 7.150126 1000 954.500724) matrix(1 0 0 1 -0.044186 0)  translate(-27.365, -28.095077)" d="M 54.73 20.73 C 54.73 20.73 54.73 20.78 54.73 20.87 C 54.73 20.96 54.67 21.30 54.62 21.53 C 54.46 22.24 54.25 22.93 54.00 23.61 C 52.96 26.29 52.39 29.13 52.29 32.00 C 52.05 35.27 52.52 38.56 53.68 41.63 C 53.94 42.28 54.13 42.95 54.25 43.63 C 54.41 44.80 53.95 45.96 53.05 46.72 L 53.05 46.72 L 51.18 47.19 L 51.18 47.83 L 43.88 49.89 L 42.10 49.40 L 18.28 56.22 L 0.12 50.00 L 0.00 46.77 L 3.23 46.00 L 3.17 44.44 L 8.57 43.02 L 8.36 43.00 L 8.36 41.68 L 9.14 41.45 C 9.26 40.54 10.40 32.40 10.99 28.53 C 10.53 28.08 10.35 27.42 10.50 26.80 C 10.53 26.64 10.59 26.48 10.66 26.33 C 10.83 26.02 11.11 25.78 11.44 25.66 C 11.67 25.58 11.92 25.55 12.16 25.58 L 12.16 25.58 L 12.24 25.58 L 12.24 20.14 L 14.68 19.63 L 14.68 19.63 L 18.82 20.54 L 18.82 16.26 C 17.01 17.52 14.93 18.36 12.75 18.70 C 10.94 18.86 9.16 18.11 8.01 16.70 C 6.46 14.92 5.48 12.72 5.21 10.38 C 4.84 8.05 5.17 5.66 6.14 3.51 C 6.89 1.68 8.52 0.36 10.47 -0.00 C 10.83 -0.04 11.19 -0.04 11.55 0.00 C 11.76 0.00 16.43 0.11 19.73 2.91 C 20.25 3.35 20.69 3.87 21.05 4.44 L 24.82 4.62 L 24.82 9.20 L 32.20 8.00 L 32.20 8.00 L 51.06 11.53 L 51.00 16.60 L 52.24 17.16 L 52.24 17.66 L 52.54 17.61 C 52.71 17.57 52.90 17.57 53.07 17.61 C 53.47 17.71 53.82 17.95 54.07 18.27 C 54.38 18.67 54.58 19.15 54.65 19.65 C 54.69 19.98 54.69 20.32 54.65 20.65 Z" stroke-linecap="round"/>
</g>
		<g id="Layer_1-2">
<path style="stroke: rgb(193,193,193); stroke-width: 0; stroke-dasharray: none; stroke-linecap: butt; stroke-dashoffset: 0; stroke-linejoin: miter; stroke-miterlimit: 4; fill: rgb(255,255,255); fill-rule: nonzero; opacity: 1;" transform="matrix(-7.150126 0 0 7.150126 1000 954.500724) matrix(1 0 0 1 3.038619 -0.376817)  translate(-30.447805, -27.71826)" d="M 30.28 41.00 L 30.40 31.74 C 30.27 32.01 30.04 32.22 29.76 32.32 L 29.48 43.15 L 32.48 42.26 L 35.89 42.87 L 29.44 44.72 L 29.44 45.43 C 29.08 45.88 28.60 46.23 28.06 46.43 C 27.29 46.56 26.50 46.65 25.72 46.70 C 25.94 47.02 26.03 47.35 25.44 47.36 C 24.21 47.30 22.99 47.15 21.78 46.92 L 21.78 45.62 L 23.69 44.92 C 23.61 45.09 23.55 45.28 23.52 45.47 C 23.52 45.58 23.54 45.69 23.59 45.79 L 24.80 46.06 C 24.80 46.00 24.80 45.95 24.75 45.88 C 24.79 45.18 24.92 44.48 25.14 43.81 C 25.14 43.81 28.19 30.59 28.40 30.20 C 28.51 29.97 28.69 29.79 28.92 29.69 L 27.50 29.29 C 27.89 28.89 28.47 28.74 29.00 28.90 C 29.57 29.18 30.05 29.60 30.40 30.12 L 30.48 24.45 L 29.80 25.08 L 29.20 22.92 L 20.87 21.08 L 22.10 20.29 L 22.70 20.44 L 23.37 19.70 L 23.95 19.91 C 23.95 19.91 24.62 19.18 25.11 19.28 C 25.60 19.38 26.11 19.48 26.11 19.48 L 26.31 19.09 L 37.45 21.44 L 37.45 23.11 L 39.26 25.47 L 39.00 38.08 L 37.40 40.29 L 37.27 38.46 L 35.69 40.37 L 35.36 38.56 L 33.78 40.56 L 33.66 38.95 L 31.83 41.16 L 31.83 39.16 L 30.28 41.00 Z M 23.28 54.36 L 21.90 54.18 C 21.90 54.18 21.30 54.13 21.14 53.18 C 21.03 52.65 21.08 52.10 21.28 51.60 L 22.85 51.79 C 22.63 52.15 22.53 52.58 22.58 53.00 C 22.70 53.50 22.92 53.96 23.23 54.37 Z M 30.59 11.73 C 31.15 11.73 31.59 12.33 31.59 13.07 C 31.59 13.81 31.15 14.42 30.59 14.42 C 30.03 14.42 29.59 13.81 29.59 13.07 C 29.59 12.33 30.00 11.75 30.54 11.75 Z M 40.94 13.73 C 41.58 13.84 42.02 14.44 41.94 15.08 C 42.09 15.52 41.94 16.01 41.57 16.28 C 41.20 16.56 40.68 16.56 40.31 16.28 C 39.94 16.01 39.79 15.52 39.94 15.08 C 39.86 14.45 40.27 13.86 40.89 13.73 Z M 21.37 5.29 C 21.37 5.29 21.76 5.78 20.79 6.73 C 19.92 7.39 18.88 7.79 17.79 7.90 C 17.91 8.62 17.98 9.36 18.00 10.09 C 18.00 10.85 17.94 11.81 17.94 11.81 C 18.65 11.71 19.35 11.51 20.00 11.21 C 20.44 10.95 20.82 10.61 21.14 10.21 C 21.16 10.79 21.12 11.37 21.04 11.95 C 20.95 12.63 20.78 13.31 20.53 13.95 L 23.04 13.12 L 23.04 5.54 L 21.35 5.29 Z M 15.73 30.29 L 20.00 28.83 C 20.45 29.17 20.95 29.44 21.48 29.65 C 21.78 29.76 22.10 29.79 22.42 29.75 C 22.74 30.04 22.96 30.43 23.06 30.85 C 23.08 31.13 23.08 31.41 23.06 31.69 C 22.44 31.52 21.84 31.27 21.28 30.94 C 20.92 30.61 20.65 30.34 20.65 30.34 C 20.96 31.05 21.12 31.82 21.12 32.60 C 21.13 33.03 21.06 33.47 20.90 33.87 L 17.15 35.11 C 17.20 34.19 17.07 33.27 16.77 32.40 C 16.57 31.62 16.20 30.90 15.70 30.27 Z M 54.73 20.75 C 54.73 20.75 54.73 20.80 54.73 20.89 C 54.71 21.11 54.67 21.33 54.62 21.54 C 54.46 22.24 54.25 22.93 54.00 23.61 C 52.96 26.29 52.39 29.13 52.29 32.00 C 52.05 35.27 52.53 38.56 53.68 41.63 C 53.94 42.28 54.13 42.95 54.25 43.63 C 54.41 44.80 53.96 45.97 53.05 46.72 L 53.05 46.72 L 51.18 47.19 L 51.18 47.83 L 43.88 49.89 L 43.88 49.89 L 44.31 19.16 L 52.21 17.22 L 52.21 17.79 L 49.14 18.62 L 50.23 20.15 L 54.54 18.81 C 54.66 19.08 54.74 19.37 54.79 19.66 C 54.83 19.99 54.83 20.33 54.79 20.66 Z M 15.67 37.17 C 15.48 37.47 15.18 37.67 14.83 37.74 C 13.92 37.67 13.11 37.13 12.70 36.31 C 11.85 34.94 11.49 33.32 11.70 31.72 C 11.76 30.80 12.44 30.03 13.35 29.87 C 12.69 31.30 12.59 32.93 13.06 34.43 C 13.43 35.70 14.38 36.72 15.63 37.17 Z M 17.09 12.00 C 15.70 11.70 14.75 10.42 14.86 9.00 C 14.79 6.37 16.49 5.74 16.49 5.74 C 16.92 6.87 17.18 8.05 17.27 9.25 C 17.36 10.17 17.29 11.10 17.09 12.00 Z M 14.80 4.27 C 14.40 3.24 13.75 2.33 12.91 1.62 C 12.05 1.06 10.98 0.92 10.00 1.23 C 8.32 2.05 7.06 3.53 6.53 5.32 C 5.98 7.31 5.93 9.41 6.39 11.43 C 6.79 12.36 7.49 13.11 8.39 13.57 C 8.11 13.04 7.88 12.49 7.72 11.91 C 7.58 11.33 7.53 10.73 7.58 10.14 C 7.77 10.86 8.03 11.55 8.38 12.21 C 8.67 12.73 9.07 13.19 9.56 13.53 L 13.89 11.63 C 13.22 10.35 12.96 8.90 13.14 7.47 C 13.33 6.25 13.92 5.13 14.80 4.27 Z" stroke-linecap="round"/>
</g>
		<g id="Layer_1-2">
<path style="stroke: rgb(193,193,193); stroke-width: 0; stroke-dasharray: none; stroke-linecap: butt; stroke-dashoffset: 0; stroke-linejoin: miter; stroke-miterlimit: 4; fill: rgb(0,0,0); fill-rule: nonzero; opacity: 1;" transform="matrix(-7.150126 0 0 7.150126 1000 954.500724) matrix(1 0 0 1 -0.044186 0)  translate(-27.365, -28.095077)" d="M 24.87 45.58 C 24.87 45.58 24.87 46.44 25.22 46.58 L 25.28 46.58 C 26.33 46.37 27.36 46.09 28.37 45.73 C 28.74 45.46 28.97 45.04 29.00 44.59 C 29.00 44.32 29.00 42.86 29.11 41.02 C 29.22 37.71 29.38 33.19 29.41 32.30 L 28.41 32.10 L 28.35 32.10 C 28.26 32.01 28.18 31.91 28.13 31.80 L 28.13 31.72 L 25.13 44.23 L 24.88 44.17 L 28.08 30.94 L 28.08 30.85 C 28.14 30.44 28.45 29.67 28.94 29.61 L 29.62 29.76 C 29.24 29.17 28.03 28.83 27.62 29.30 C 27.60 29.33 27.58 29.36 27.57 29.39 C 27.37 29.98 23.67 45.18 23.57 45.48 C 23.57 45.57 23.50 46.15 23.72 46.21 L 24.72 46.48 C 24.61 46.20 24.55 45.91 24.54 45.61 Z M 29.29 44.58 L 29.29 44.58 L 34.92 42.87 C 34.04 42.67 33.15 42.58 32.25 42.58 C 31.82 42.72 29.79 43.25 29.32 43.37 Z M 52.16 30.42 C 51.25 30.80 50.44 31.37 49.77 32.09 C 49.09 33.10 48.67 34.26 48.54 35.47 C 47.54 31.92 49.21 27.37 50.42 24.00 L 50.42 23.90 L 50.52 23.90 C 51.42 23.93 52.31 23.66 53.04 23.14 C 53.80 22.61 54.30 21.77 54.42 20.85 C 54.48 20.48 54.48 20.09 54.42 19.72 C 54.36 19.26 54.18 18.83 53.90 18.46 C 53.69 18.18 53.39 17.98 53.05 17.90 C 52.91 17.88 52.76 17.88 52.62 17.90 C 51.75 18.04 50.10 18.46 49.36 18.65 C 50.11 19.07 50.58 19.85 50.59 20.71 C 50.69 22.09 50.33 23.14 49.59 25.27 C 49.35 25.97 49.07 26.80 48.76 27.78 C 48.19 29.69 47.93 31.69 48.00 33.68 C 48.05 35.56 48.31 37.43 48.77 39.26 C 49.03 40.32 49.31 41.26 49.56 42.17 C 50.13 44.17 50.56 45.58 50.26 46.46 C 50.17 46.77 50.01 47.06 49.79 47.30 L 52.93 46.52 C 53.74 45.82 54.15 44.75 54.00 43.69 C 53.88 43.03 53.70 42.38 53.45 41.75 C 52.26 38.64 51.77 35.32 52.00 32.00 C 52.00 31.43 52.07 30.90 52.12 30.40 Z M 54.73 20.73 C 54.73 20.73 54.73 20.78 54.73 20.87 C 54.71 21.09 54.67 21.31 54.62 21.53 C 54.46 22.24 54.25 22.93 54.00 23.61 C 52.96 26.29 52.39 29.13 52.29 32.00 C 52.05 35.27 52.53 38.56 53.68 41.63 C 53.94 42.28 54.13 42.95 54.25 43.63 C 54.41 44.80 53.96 45.97 53.05 46.72 L 53.05 46.72 L 51.18 47.19 L 51.18 47.83 L 43.88 49.89 L 42.10 49.40 L 18.28 56.22 L 0.12 50.00 L 0.00 46.77 L 3.23 46.00 L 3.17 44.44 L 8.57 43.02 L 8.36 43.00 L 8.36 41.68 L 9.14 41.45 C 9.26 40.54 10.40 32.40 10.99 28.53 C 10.53 28.08 10.35 27.42 10.51 26.80 C 10.54 26.64 10.59 26.48 10.66 26.33 C 10.83 26.02 11.11 25.78 11.44 25.66 C 11.67 25.58 11.92 25.55 12.16 25.58 L 12.16 25.58 L 12.24 25.58 L 12.24 20.14 L 14.68 19.63 L 14.74 19.63 L 18.87 20.54 L 18.87 16.26 C 17.06 17.52 14.98 18.36 12.80 18.70 C 10.99 18.86 9.21 18.11 8.06 16.70 C 6.51 14.92 5.53 12.72 5.26 10.38 C 4.90 8.05 5.22 5.66 6.19 3.51 C 6.93 1.69 8.54 0.37 10.47 0.00 C 10.83 -0.04 11.19 -0.04 11.55 0.00 C 11.76 0.00 16.44 0.11 19.73 2.91 C 20.25 3.35 20.69 3.87 21.05 4.44 L 24.82 4.62 L 24.82 9.20 L 32.20 8.00 L 32.20 8.00 L 51.06 11.53 L 51.00 16.60 L 52.24 17.16 L 52.24 17.66 L 52.54 17.61 C 52.71 17.57 52.90 17.57 53.07 17.61 C 53.47 17.72 53.82 17.95 54.07 18.27 C 54.37 18.67 54.57 19.15 54.64 19.65 C 54.68 19.98 54.68 20.32 54.64 20.65 Z M 44.56 49.45 C 45.09 49.17 45.40 48.60 45.34 48.00 C 45.27 47.00 45.61 21.34 45.64 19.00 L 44.64 19.26 L 44.11 49.51 Z M 52.05 17.74 L 52.05 17.44 L 47.40 18.63 L 47.18 21.42 C 47.49 20.52 48.08 18.72 49.06 18.42 C 49.50 18.30 50.99 17.91 52.06 17.70 Z M 10.77 26.85 C 10.65 27.32 10.75 27.82 11.05 28.21 C 11.20 27.26 11.30 26.62 11.34 26.52 C 11.46 26.25 11.65 26.01 11.88 25.83 C 11.76 25.84 11.65 25.87 11.54 25.91 C 11.27 26.01 11.04 26.20 10.90 26.46 C 10.84 26.58 10.79 26.71 10.77 26.85 Z M 12.29 25.85 C 11.99 26.03 11.74 26.29 11.59 26.61 C 11.53 26.77 11.30 28.25 11.01 30.23 C 11.25 29.61 11.70 29.10 12.29 28.78 L 12.29 25.84 Z M 10.59 33.07 C 10.08 36.62 9.54 40.49 9.42 41.38 L 10.85 40.98 L 11.43 36.15 C 11.17 35.63 10.97 35.08 10.83 34.51 C 10.71 34.04 10.63 33.56 10.59 33.07 Z M 22.00 54.00 C 22.27 54.00 22.56 54.00 22.81 54.00 C 22.72 53.89 22.64 53.76 22.59 53.63 C 22.42 53.20 22.37 52.73 22.43 52.27 C 22.50 51.77 22.70 51.29 23.00 50.89 C 23.11 50.73 23.25 50.59 23.40 50.47 C 23.13 50.47 22.79 50.47 22.50 50.47 C 22.18 50.51 21.90 50.70 21.75 50.98 C 21.49 51.36 21.33 51.81 21.29 52.27 C 21.28 52.39 21.28 52.50 21.29 52.62 C 21.29 53.08 21.45 53.97 22.02 54.03 Z M 21.13 51.48 C 21.21 51.23 21.33 51.00 21.48 50.79 C 21.69 50.43 22.06 50.20 22.48 50.17 C 22.97 50.18 23.46 50.22 23.95 50.29 L 24.00 50.29 C 24.21 50.31 24.39 50.41 24.53 50.57 L 39.25 46.57 L 36.00 46.00 L 15.42 51.39 L 18.30 52.24 L 21.14 51.47 Z M 10.13 45.48 L 7.80 46.13 L 12.59 47.45 L 12.59 47.40 L 15.07 46.80 Z M 7.45 46.30 L 7.45 47.90 L 12.45 49.42 L 12.53 47.71 L 7.48 46.30 Z M 7.33 48.14 L 6.17 48.57 L 12.46 50.48 L 12.46 49.69 L 7.36 48.14 Z M 3.24 46.29 L 0.64 46.88 L 3.29 47.69 Z M 5.78 45.19 L 10.90 43.74 L 9.05 43.19 L 3.78 44.58 L 5.78 45.19 Z M 18.91 46.13 L 13.25 47.51 L 15.17 48.05 L 20.71 46.66 L 18.92 46.13 Z M 21.78 46.71 L 23.49 46.24 C 23.37 45.98 23.34 45.69 23.38 45.41 L 23.38 45.29 L 21.77 45.77 L 8.63 41.94 L 8.63 42.80 L 21.79 46.71 Z M 0.37 49.80 L 18.17 55.90 L 18.17 52.47 L 14.81 51.47 L 15.00 48.28 L 12.84 47.67 L 12.70 50.82 L 5.67 48.68 L 5.67 45.42 L 3.46 44.74 L 3.56 48.00 L 0.27 47.00 L 0.37 49.76 Z M 19.18 16.60 C 19.48 16.69 19.78 16.76 20.08 16.81 C 20.37 16.85 20.67 16.87 20.97 16.86 L 20.97 16.00 L 21.10 16.00 L 22.84 15.49 L 22.84 14.41 C 22.45 14.65 22.02 14.83 21.57 14.93 C 21.12 15.02 20.66 15.07 20.20 15.07 C 19.90 15.43 19.56 15.77 19.20 16.07 L 19.20 16.61 Z M 20.04 17.06 C 19.75 17.02 19.46 16.96 19.18 16.87 L 19.18 20.60 L 20.03 20.79 Z M 21.04 13.68 L 22.75 13.07 L 22.83 5.77 L 21.62 5.69 C 21.92 6.49 22.10 7.32 22.16 8.17 C 22.28 10.07 21.89 11.97 21.04 13.68 Z M 28.24 10.36 L 28.18 15.21 L 43.10 18.00 L 43.10 13.18 L 28.28 10.36 Z M 28.00 15.17 L 28.00 10.31 L 24.31 9.61 L 24.31 14.47 L 27.94 15.16 Z M 43.27 12.94 L 50.27 11.67 L 32.27 8.29 L 25.00 9.46 Z M 9.75 13.15 L 10.75 12.70 C 9.87 11.19 9.49 9.44 9.66 7.70 C 9.69 5.88 10.27 4.11 11.32 2.63 L 11.63 2.63 C 10.57 4.14 9.98 5.92 9.92 7.76 C 9.76 9.44 10.14 11.13 11.00 12.59 L 12.30 12.00 C 11.59 10.38 11.38 8.59 11.70 6.85 C 11.88 5.29 12.66 3.85 13.87 2.85 C 13.00 1.75 12.06 1.00 10.55 1.21 C 8.98 1.59 7.69 2.71 7.09 4.21 C 6.25 6.12 5.97 8.23 6.29 10.29 C 6.38 11.27 6.85 12.18 7.60 12.82 C 7.70 12.93 7.81 13.04 7.93 13.14 C 7.00 11.57 6.87 8.00 7.71 6.50 C 7.41 8.66 7.80 11.77 9.71 13.15 Z M 12.00 6.91 C 11.70 8.60 11.91 10.34 12.59 11.91 L 13.39 11.56 C 12.77 10.29 12.57 8.86 12.79 7.46 C 12.94 6.17 13.60 4.99 14.63 4.19 C 14.47 3.80 14.26 3.43 14.00 3.10 C 12.88 4.07 12.16 5.43 12.00 6.91 Z M 15.65 10.72 C 15.95 11.24 16.43 11.62 17.00 11.79 C 17.15 10.70 17.15 9.59 17.00 8.50 L 17.00 8.09 C 16.88 7.41 16.71 6.74 16.48 6.09 C 15.77 6.59 15.30 7.35 15.16 8.20 C 15.08 8.64 15.08 9.09 15.16 9.53 C 15.23 9.95 15.38 10.36 15.60 10.72 Z M 18.12 11.57 C 18.81 11.43 19.48 11.21 20.12 10.90 C 20.87 10.49 21.21 8.06 21.21 8.06 C 21.54 9.34 21.57 10.67 21.32 11.96 C 21.25 12.40 21.16 12.83 21.03 13.26 C 21.76 11.67 22.08 9.93 21.97 8.19 C 21.90 6.25 21.04 4.42 19.59 3.13 C 17.68 1.64 15.40 0.70 13.00 0.41 C 13.83 0.78 14.58 1.32 15.20 2.00 C 16.70 3.68 17.68 5.77 18.00 8.00 L 18.05 8.35 C 18.20 9.42 18.22 10.50 18.11 11.58 Z M 16.89 15.09 C 17.84 12.99 18.16 10.65 17.80 8.37 L 17.70 8.00 C 17.38 5.84 16.45 3.82 15.00 2.19 C 13.90 0.86 12.23 0.15 10.51 0.30 C 8.70 0.68 7.20 1.94 6.51 3.66 C 5.57 5.77 5.25 8.10 5.60 10.38 C 5.86 12.66 6.80 14.81 8.30 16.55 C 9.39 17.89 11.08 18.60 12.81 18.45 C 14.62 18.07 16.13 16.81 16.81 15.09 Z M 41.77 20.00 L 43.22 19.43 L 23.32 15.60 L 21.64 16.10 Z M 21.22 16.30 L 21.22 20.74 L 21.83 20.42 L 21.83 17.06 L 40.83 20.68 L 40.70 47.80 L 41.47 48.23 L 41.65 20.23 L 21.22 16.28 Z M 32.27 23.30 L 22.15 20.60 L 21.15 21.11 L 29.40 22.92 L 29.75 24.37 C 30.03 24.01 30.58 23.37 30.87 23.59 L 31.77 24.26 C 31.89 23.90 32.06 23.55 32.27 23.23 Z M 23.00 20.49 L 32.50 23.00 C 32.75 23.08 32.99 23.22 33.19 23.39 C 33.25 23.13 33.36 22.87 33.50 22.64 L 29.79 21.69 L 29.85 21.44 L 33.85 22.44 C 34.27 22.62 34.66 22.85 35.02 23.13 C 35.13 22.82 35.28 22.52 35.47 22.24 L 32.68 21.48 L 32.75 21.23 L 35.75 22.05 C 36.21 22.31 36.63 22.63 37.00 23.00 L 36.92 21.69 L 26.53 19.36 L 26.44 19.60 L 30.67 20.68 L 30.61 20.93 C 30.61 20.93 25.35 19.56 25.00 19.52 C 24.79 19.52 24.46 19.79 24.26 20.00 L 28.46 21.19 L 28.39 21.44 L 23.39 20.02 L 23.00 20.49 Z M 14.78 19.89 L 13.07 20.23 L 27.48 23.50 L 28.92 23.00 Z M 15.49 37.23 C 15.17 37.23 14.85 37.12 14.59 36.93 C 14.04 36.50 13.59 35.95 13.29 35.32 C 12.91 34.59 12.65 33.81 12.53 33.00 C 12.31 31.96 12.53 30.88 13.13 30.00 L 12.97 30.00 C 12.91 30.01 12.86 30.04 12.81 30.07 C 12.22 30.46 11.85 31.10 11.81 31.80 C 11.69 32.78 11.78 33.77 12.10 34.71 C 12.21 35.06 12.36 35.39 12.53 35.71 C 12.80 36.28 13.21 36.78 13.71 37.17 C 14.05 37.45 14.50 37.55 14.93 37.45 L 15.10 37.38 C 15.22 37.32 15.33 37.23 15.42 37.14 Z M 22.58 30.59 C 22.24 29.11 21.40 27.80 20.20 26.87 C 19.51 26.35 18.68 26.07 17.82 26.06 L 17.54 26.06 L 17.29 26.06 L 17.20 26.06 C 16.25 26.35 15.48 27.07 15.14 28.00 L 17.00 27.65 C 17.87 27.43 18.80 27.61 19.52 28.15 C 20.93 29.15 20.52 30.30 22.60 30.59 Z M 21.09 35.77 C 20.91 36.14 20.62 36.43 20.25 36.61 L 17.60 37.77 C 18.32 38.23 19.17 38.42 20.01 38.33 C 20.98 38.18 21.81 37.57 22.24 36.69 Z M 17.23 33.45 C 19.49 32.63 21.69 30.04 19.35 28.36 C 18.68 27.86 17.81 27.69 17.00 27.90 L 13.80 28.64 C 14.51 28.87 15.13 29.32 15.58 29.92 C 16.28 30.81 16.79 31.83 17.08 32.92 C 17.08 33.10 17.16 33.28 17.19 33.46 Z M 17.37 34.84 L 20.75 33.61 C 20.78 33.49 20.80 33.36 20.81 33.24 L 20.81 33.00 L 17.33 34.15 C 17.35 34.38 17.36 34.61 17.35 34.84 Z M 22.85 28.18 L 25.44 29.12 L 25.44 25.12 L 14.27 22.45 L 14.27 28.27 L 14.83 28.14 C 15.19 27.06 16.05 26.22 17.14 25.88 L 17.22 25.88 L 17.51 25.88 L 17.78 25.88 L 20.00 25.67 L 20.00 25.67 C 20.76 25.94 21.45 26.40 22.00 27.00 C 22.32 27.36 22.60 27.76 22.83 28.19 Z M 21.41 27.66 L 22.14 27.55 C 22.04 27.41 21.94 27.28 21.83 27.16 C 21.33 26.61 20.70 26.19 20.00 25.93 L 19.00 26.00 C 19.47 26.15 19.92 26.38 20.32 26.67 C 20.72 26.95 21.07 27.29 21.38 27.67 Z M 22.91 37.36 L 21.00 38.29 C 20.69 38.46 20.35 38.56 20.00 38.58 C 19.05 38.70 18.09 38.46 17.31 37.89 L 15.65 38.62 C 15.51 38.69 15.37 38.74 15.22 38.78 C 15.04 38.83 14.85 38.85 14.66 38.84 C 14.52 38.84 14.38 38.82 14.24 38.79 L 14.24 39.62 L 24.24 41.98 L 25.42 37.14 L 23.68 36.33 C 23.59 36.54 23.49 36.74 23.36 36.93 C 23.25 37.11 23.10 37.25 22.92 37.36 Z M 12.91 28.85 L 12.91 28.85 L 12.74 28.85 L 12.60 28.85 L 12.47 28.90 C 11.67 29.32 11.12 30.10 11.00 31.00 C 10.73 32.14 10.75 33.33 11.06 34.46 C 11.21 34.99 11.41 35.51 11.66 36.00 C 11.90 36.47 12.18 36.91 12.52 37.31 C 12.76 37.59 13.03 37.84 13.33 38.06 C 13.59 38.24 13.88 38.38 14.18 38.47 C 14.35 38.52 14.52 38.55 14.69 38.56 C 14.86 38.56 15.03 38.54 15.19 38.50 C 16.04 38.20 16.67 37.48 16.85 36.60 C 17.18 35.41 17.18 34.14 16.85 32.95 C 16.57 31.90 16.08 30.92 15.41 30.06 C 14.87 29.23 13.92 28.75 12.93 28.82 Z M 12.86 28.59 L 14.00 28.33 L 14.00 22.12 L 25.67 24.89 L 25.67 36.00 C 26.48 32.74 27.21 29.77 27.34 29.32 L 27.34 23.74 L 12.55 20.38 L 12.55 28.67 L 12.67 28.67 L 12.87 28.67 Z M 23.86 43.46 L 24.16 42.23 L 14.00 39.83 L 14.00 38.72 C 13.70 38.62 13.42 38.48 13.17 38.30 C 12.94 38.14 12.73 37.95 12.54 37.75 L 12.54 40.90 L 23.85 43.46 Z M 28.37 30.83 L 29.00 31.00 C 29.04 30.72 29.15 30.45 29.32 30.22 C 29.37 30.14 29.43 30.06 29.50 30.00 L 29.00 29.85 C 28.90 29.90 28.81 29.97 28.74 30.06 C 28.55 30.28 28.43 30.55 28.37 30.83 Z M 28.95 31.21 L 28.35 31.09 C 28.34 31.28 28.38 31.48 28.45 31.66 C 28.48 31.73 28.52 31.80 28.58 31.85 L 29.11 31.97 L 29.05 31.85 C 28.97 31.65 28.94 31.43 28.94 31.21 Z M 29.95 30.05 L 29.95 30.05 C 29.76 30.07 29.59 30.17 29.49 30.33 C 29.34 30.55 29.24 30.81 29.21 31.08 C 29.19 31.31 29.21 31.54 29.29 31.75 C 29.34 31.89 29.45 32.01 29.59 32.07 L 29.69 32.07 C 29.87 32.05 30.04 31.95 30.14 31.79 C 30.29 31.57 30.39 31.31 30.42 31.04 C 30.42 30.98 30.42 30.92 30.42 30.85 C 30.43 30.65 30.38 30.45 30.28 30.27 C 30.22 30.15 30.10 30.06 29.97 30.04 Z M 30.65 39.82 L 31.40 38.72 L 31.67 26.34 L 30.80 25.18 Z M 32.45 39.59 L 33.20 38.49 L 33.47 26.12 L 32.63 25.00 L 32.48 39.60 Z M 34.25 39.37 L 35.00 38.27 L 35.27 25.89 L 34.40 24.73 Z M 36.05 39.14 L 36.80 38.04 L 37.07 25.67 L 36.20 24.50 L 36.05 39.15 Z M 37.85 38.92 L 38.60 37.82 L 38.87 25.44 L 38.00 24.28 Z M 48.51 47.64 C 47.98 47.29 47.57 46.78 47.35 46.19 C 46.92 45.22 46.55 44.22 46.27 43.19 L 46.15 47.85 C 46.15 47.91 46.25 48.35 46.83 48.20 C 47.41 48.05 48.08 47.79 48.54 47.64 Z M 10.51 1.00 C 12.14 0.81 13.75 1.47 14.78 2.75 C 16.09 4.26 16.93 6.11 17.22 8.09 C 17.22 8.22 17.27 8.36 17.28 8.50 C 17.60 10.61 17.32 12.77 16.46 14.73 C 15.83 16.37 14.40 17.56 12.68 17.91 C 11.09 18.05 9.53 17.38 8.53 16.13 C 7.13 14.50 6.25 12.48 6.00 10.34 C 5.68 8.23 5.97 6.07 6.83 4.12 C 7.47 2.54 8.84 1.37 10.51 1.00 Z M 12.69 30.00 C 12.75 29.96 12.82 29.93 12.89 29.91 C 13.40 29.77 13.94 29.89 14.34 30.22 C 14.88 30.63 15.31 31.16 15.61 31.77 C 15.79 32.11 15.94 32.47 16.05 32.84 C 16.38 33.80 16.48 34.83 16.35 35.84 C 16.31 36.61 15.91 37.32 15.27 37.76 L 15.06 37.84 C 14.55 37.98 14.02 37.86 13.61 37.53 C 13.08 37.12 12.65 36.59 12.35 35.98 C 12.17 35.64 12.02 35.28 11.90 34.92 C 11.58 33.95 11.48 32.93 11.60 31.92 C 11.64 31.14 12.05 30.43 12.69 30.00 Z M 40.90 13.60 C 41.23 13.61 41.54 13.77 41.74 14.04 C 42.19 14.66 42.19 15.49 41.74 16.11 C 41.54 16.38 41.23 16.54 40.90 16.55 C 40.56 16.54 40.25 16.38 40.05 16.11 C 39.61 15.49 39.61 14.66 40.05 14.04 C 40.25 13.77 40.56 13.61 40.90 13.60 Z M 41.54 14.20 C 41.39 14.00 41.15 13.87 40.90 13.86 C 40.65 13.87 40.41 13.99 40.26 14.20 C 39.89 14.72 39.89 15.43 40.26 15.95 C 40.41 16.16 40.65 16.28 40.90 16.29 C 41.15 16.28 41.39 16.16 41.54 15.95 C 41.91 15.43 41.91 14.72 41.54 14.20 Z M 30.54 11.64 C 30.88 11.65 31.19 11.82 31.39 12.09 C 31.83 12.71 31.83 13.53 31.39 14.15 C 31.19 14.42 30.88 14.59 30.54 14.60 C 30.20 14.59 29.89 14.43 29.70 14.15 C 29.25 13.54 29.25 12.70 29.70 12.09 C 29.89 11.81 30.21 11.64 30.55 11.64 Z M 31.18 12.24 C 31.03 12.03 30.79 11.91 30.54 11.90 C 30.29 11.91 30.05 12.03 29.90 12.24 C 29.72 12.50 29.62 12.80 29.62 13.12 C 29.62 13.43 29.71 13.74 29.90 13.99 C 30.05 14.20 30.28 14.33 30.54 14.34 C 30.80 14.33 31.04 14.20 31.18 13.99 C 31.37 13.74 31.47 13.43 31.46 13.12 C 31.47 12.80 31.38 12.49 31.19 12.24 Z" stroke-linecap="round"/>
</g>
		<g id="Layer_1-2">
<path style="stroke: rgb(193,193,193); stroke-width: 0; stroke-dasharray: none; stroke-linecap: butt; stroke-dashoffset: 0; stroke-linejoin: miter; stroke-miterlimit: 4; fill: rgb(0,0,0); fill-rule: nonzero; opacity: 1;" transform="matrix(-7.150126 0 0 7.150126 1000 954.500724) matrix(1 0 0 1 -0.104372 11.519292)  translate(-27.304813, -39.614369)" d="M 26.08 45.00 L 27.66 44.66 C 27.94 44.58 28.13 44.33 28.12 44.04 C 28.12 43.50 28.73 34.38 28.73 34.38 C 28.73 34.38 28.58 33.95 28.44 34.54 L 25.88 44.74 C 25.87 44.86 25.96 44.97 26.08 44.99 Z" stroke-linecap="round"/>
</g>
		<g id="Layer_1-2">
<path style="stroke: rgb(193,193,193); stroke-width: 0; stroke-dasharray: none; stroke-linecap: butt; stroke-dashoffset: 0; stroke-linejoin: miter; stroke-miterlimit: 4; fill: rgb(0,0,0); fill-rule: nonzero; opacity: 1;" transform="matrix(-7.150126 0 0 7.150126 1000 954.500724) matrix(1 0 0 1 8.440689 -14.020887)  translate(-35.849875, -14.074189)" d="M 40.90 14.55 C 41.12 14.50 41.35 14.59 41.48 14.79 C 41.60 14.98 41.59 15.23 41.44 15.41 C 41.30 15.59 41.06 15.66 40.84 15.59 C 40.63 15.51 40.48 15.31 40.48 15.08 C 40.45 14.82 40.64 14.58 40.90 14.55 Z M 30.55 12.55 C 30.78 12.49 31.02 12.58 31.15 12.78 C 31.28 12.97 31.27 13.23 31.13 13.42 C 30.98 13.60 30.73 13.68 30.51 13.60 C 30.29 13.53 30.14 13.32 30.14 13.08 C 30.13 12.84 30.31 12.63 30.55 12.59 Z" stroke-linecap="round"/>
</g>
</g>
</g>

  </svg>